# xmcd CD database file
#
# Track frame offsets:
#	150
#	17276
#	48186
#	70169
#	91264
#	105074
#	136843
#	155854
#	163793
#	188353
#
# Disc length: 2663 seconds
#
# Revision: 0
# Processed by: cddbd v1.5.1PL0 Copyright (c) Steve Scherf et al.
# Submitted via: CDex 1.51
#
DISCID=6a0a650a
DTITLE=Alan Plachta - De todas las tardes
DYEAR=2004
DGENRE=Jazz
TTITLE0=De todas las tardes
TTITLE1=La Pura
TTITLE2=Tres Años
TTITLE3=A Pesar de los Ruidos de Warnes
TTITLE4=La Mama Vieja
TTITLE5=Dale que oscurece
TTITLE6=Los Nuevos
TTITLE7=Gato Leproso
TTITLE8=El Andar
TTITLE9=Domingo 7 PM
EXTD=YEAR: 2004
EXTT0=
EXTT1=
EXTT2=
EXTT3=
EXTT4=
EXTT5=
EXTT6=
EXTT7=
EXTT8=
EXTT9=
PLAYORDER=
